<?xml version="1.0" encoding="utf-8"?>
<!-- Generator: Adobe Illustrator 16.0.0, SVG Export Plug-In . SVG Version: 6.00 Build 0)  -->
<!DOCTYPE svg PUBLIC "-//W3C//DTD SVG 1.1//EN" "http://www.w3.org/Graphics/SVG/1.1/DTD/svg11.dtd">
<svg version="1.1" id="Слой_1" xmlns="http://www.w3.org/2000/svg" xmlns:xlink="http://www.w3.org/1999/xlink" x="0px" y="0px"
	 width="1165.061px" height="319.486px" viewBox="0 0 1165.061 319.486" enable-background="new 0 0 1165.061 319.486"
	 xml:space="preserve">
<g>
	<defs>
		<rect id="SVGID_1_" width="1165.063" height="319.486"/>
	</defs>
	<clipPath id="SVGID_2_">
		<use xlink:href="#SVGID_1_"  overflow="visible"/>
	</clipPath>
	<path clip-path="url(#SVGID_2_)" fill="#626369" d="M62.704,74.404c10.201,0,19.651,1.552,28.353,4.65
		c8.7,3.104,15.947,7.051,21.751,11.851l-12.601,22.802c-4.604-3.601-9.952-6.699-16.051-9.301c-6.103-2.597-13.253-3.9-21.452-3.9
		c-8.4,0-15.104,1.35-20.101,4.05c-5.002,2.701-7.501,7.154-7.501,13.351c0,3,0.549,5.551,1.651,7.65
		c1.097,2.101,2.948,3.901,5.55,5.401c2.597,1.5,5.85,2.803,9.751,3.9c3.9,1.102,8.747,2.354,14.55,3.75
		c17.599,4.2,30.499,10.004,38.704,17.401c8.198,7.403,12.3,16.801,12.3,28.203c0,14.4-5.4,25.801-16.201,34.202
		c-10.801,8.399-25.502,12.6-44.103,12.6c-11.401,0-22.103-1.649-32.102-4.95c-10.004-3.3-18.404-7.749-25.202-13.35l13.501-23.402
		c5.598,4.801,12.099,8.603,19.502,11.401c7.396,2.803,15.6,4.2,24.601,4.2c9,0,16.299-1.547,21.902-4.651
		c5.596-3.098,8.4-7.847,8.4-14.251c0-3-0.6-5.596-1.8-7.8c-1.2-2.199-3.051-4.149-5.55-5.85c-2.503-1.697-5.804-3.197-9.901-4.501
		c-4.102-1.299-9.053-2.648-14.851-4.051c-17.603-3.999-30.354-9.399-38.252-16.201c-7.905-6.797-11.851-16.098-11.851-27.901
		c0-14.402,5.1-25.549,15.301-33.453C31.202,78.356,45.101,74.404,62.704,74.404"/>
	<path clip-path="url(#SVGID_2_)" fill="#626369" d="M259.513,228.015h-26.701l-1.2-18.302
		c-4.604,5.804-10.754,10.801-18.452,15.001c-7.702,4.2-17.654,6.301-29.852,6.301c-8.602,0-16.252-1.553-22.951-4.65
		c-6.703-3.099-12.301-7.398-16.801-12.901c-4.5-5.499-7.951-12.197-10.351-20.101c-2.4-7.899-3.6-16.652-3.6-26.252V77.405h29.402
		v88.206c0,11.204,2.798,20.252,8.401,27.152c5.596,6.899,13.397,10.351,23.401,10.351c9.399,0,17.148-2.401,23.252-7.202
		c6.098-4.799,11.447-10.396,16.051-16.8V77.405h29.401V228.015z"/>
	<path clip-path="url(#SVGID_2_)" fill="#626369" d="M363.318,74.404c9.001,0,17.05,1.552,24.152,4.65
		c7.097,3.104,13.098,7.454,18.001,13.051c4.899,5.603,8.598,12.404,11.101,20.402c2.499,8.001,3.75,16.801,3.75,26.402v89.105
		h-29.401v-87.305c0-11.401-3.104-20.65-9.301-27.752c-6.202-7.098-14.701-10.651-25.502-10.651c-9,0-16.604,2.353-22.801,7.05
		c-6.202,4.702-11.603,10.352-16.201,16.951v101.707h-29.402V77.404h27.94l-0.038,18.302c4.396-5.598,10.547-10.548,18.451-14.852
		C341.965,76.556,351.716,74.404,363.318,74.404"/>
	<path clip-path="url(#SVGID_2_)" fill="#E8B747" d="M570.633,231.015h1.2l25.622-58.828c-18.052,2.466-35.232,5.294-51.253,8.271
		L570.633,231.015z"/>
	<path clip-path="url(#SVGID_2_)" fill="#E8B747" d="M482.727,231.015h1.2l20.414-41.954c-13.54,3.052-25.653,6.046-36.067,8.771
		L482.727,231.015z"/>
	<path clip-path="url(#SVGID_2_)" fill="#E8B747" d="M527.43,141.609l11.674,24.159c8.777-2.117,18.082-4.152,27.96-6.053
		l-39.033-82.311h-1.201l-41.403,87.307l-36.602-87.307h-33.002l48.988,112.476c12.525-5.357,28.258-11.232,47.35-16.891
		L527.43,141.609z"/>
	<path clip-path="url(#SVGID_2_)" fill="#E8B747" d="M638.737,77.404h-32.702l-34.128,81.404
		c10.608-1.957,21.842-3.756,33.703-5.346L638.737,77.404z"/>
	<path clip-path="url(#SVGID_2_)" fill="#E8B747" d="M795.346,228.015h29.402v-61.02c-9.746-0.621-19.555-1.173-29.402-1.644
		V228.015z"/>
	<path clip-path="url(#SVGID_2_)" fill="#E8B747" d="M824.748,129.008c5.198-7.397,10.95-13.449,17.251-18.15
		c6.3-4.698,14.146-7.051,23.551-7.051h2.7V74.404c-11.203,0-20.504,2.401-27.901,7.202c-7.402,4.799-13.004,10.2-16.801,16.2
		l0.013-20.402h-28.215v70.668c9.964,0.477,19.768,1.041,29.402,1.684V129.008z"/>
	<path clip-path="url(#SVGID_2_)" fill="#E8B747" d="M906.953,174.011v-0.108c-9.671-0.997-19.48-1.947-29.402-2.838v56.95h23.701
		l34.719-50.938c-9.489-1.097-19.148-2.157-28.949-3.168L906.953,174.011z"/>
	<path clip-path="url(#SVGID_2_)" fill="#E8B747" d="M960.956,143.409l46.203-66.005h-35.103l-54.793,81.307
		c20.797,2.649,40.467,5.598,58.936,8.712L960.956,143.409z"/>
	<path clip-path="url(#SVGID_2_)" fill="#E8B747" d="M980.157,228.015h34.503l-28.301-44.585
		c-11.998-1.636-24.405-3.239-37.149-4.783L980.157,228.015z"/>
	<path clip-path="url(#SVGID_2_)" fill="#E8B747" d="M906.953,0h-29.402v154.178c10.022,1.012,19.828,2.1,29.402,3.254V0z"/>
	<path clip-path="url(#SVGID_2_)" fill="#E8B747" d="M1125.362,184.212c0-11.401-4.103-20.801-12.301-28.202
		c-8.204-7.398-21.104-13.201-38.703-17.402c-5.803-1.396-10.65-2.648-14.551-3.75c-3.9-1.096-7.153-2.4-9.75-3.9
		c-2.603-1.5-4.454-3.3-5.551-5.4c-1.102-2.1-1.65-4.651-1.65-7.651c0-6.197,2.499-10.65,7.501-13.35
		c4.997-2.7,11.7-4.051,20.102-4.051c8.198,0,15.348,1.304,21.451,3.9c6.098,2.602,11.447,5.701,16.051,9.301l12.601-22.802
		c-5.804-4.799-13.052-8.747-21.751-11.85c-8.7-3.099-18.151-4.651-28.352-4.651c-17.604,0-31.502,3.953-41.703,11.851
		c-10.2,7.904-15.301,19.052-15.301,33.453c0,11.804,3.947,21.105,11.851,27.901c7.899,6.802,20.649,12.203,38.253,16.202
		c5.799,1.401,10.749,2.752,14.851,4.049c4.097,1.304,7.397,2.804,9.9,4.501c2.499,1.702,4.351,3.652,5.551,5.851
		c1.2,2.204,1.8,4.801,1.8,7.801c0,2.513-0.439,4.768-1.302,6.771c10.55,2.804,19.959,5.47,28.161,7.901
		C1124.405,195.715,1125.362,190.229,1125.362,184.212"/>
	<path clip-path="url(#SVGID_2_)" fill="#E8B747" d="M1088.633,199.423c-0.439,0.291-0.892,0.572-1.373,0.84
		c-5.602,3.103-12.901,4.649-21.901,4.649c-9.001,0-17.204-1.396-24.602-4.199c-7.403-2.8-13.905-6.602-19.501-11.4l-13.501,23.401
		c6.797,5.602,15.197,10.051,25.201,13.351c9.999,3.299,20.701,4.95,32.103,4.95c18.601,0,33.302-4.2,44.103-12.602
		c4.855-3.775,8.61-8.165,11.283-13.153C1111.149,203.489,1100.489,201.518,1088.633,199.423"/>
	<path clip-path="url(#SVGID_2_)" fill="#E8B747" d="M775.395,121.508c-3.32-8.171-7.737-15.389-13.23-21.678l-18.672,22.938
		c1.724,2.855,3.21,5.932,4.451,9.241c1.705,4.551,2.793,9.409,3.286,14.563c10.092,0.203,20.039,0.498,29.836,0.879
		C780.528,138.179,778.651,129.525,775.395,121.508"/>
	<path clip-path="url(#SVGID_2_)" fill="#E8B747" d="M747.943,173.862c-1.468,3.853-3.277,7.385-5.418,10.602l18.433,22.643
		c6.057-6.504,10.878-14.074,14.437-22.744c2.525-6.15,4.22-12.708,5.111-19.657c-9.928-0.392-19.883-0.695-29.845-0.904
		C750.062,167.32,749.157,170.674,747.943,173.862"/>
	<path clip-path="url(#SVGID_2_)" fill="#E8B747" d="M684.639,104.406c4.324-1.936,8.982-3.152,13.975-3.646l2.689-26.3
		c-10.222,0.274-19.682,2.192-28.364,5.795c-9.033,3.746-16.894,8.94-23.616,15.545l21.925,17.848
		C675.098,109.765,679.559,106.683,684.639,104.406"/>
	<path clip-path="url(#SVGID_2_)" fill="#E8B747" d="M722.892,104.406c5.217,2.302,9.771,5.429,13.661,9.372l21.928-17.86
		c-6.75-6.662-14.656-11.894-23.738-15.663c-8.607-3.57-17.974-5.487-28.085-5.789l2.701,26.347
		C714.104,101.333,718.616,102.525,722.892,104.406"/>
	<path clip-path="url(#SVGID_2_)" fill="#E8B747" d="M659.887,132.009c1.213-3.377,2.699-6.511,4.443-9.416l-18.674-22.927
		c-5.547,6.327-9.962,13.601-13.221,21.842c-3.568,9.011-5.438,18.826-5.657,29.422c9.574-1.01,19.501-1.886,29.82-2.592
		C656.978,142.523,658.064,137.076,659.887,132.009"/>
	<path clip-path="url(#SVGID_2_)" fill="#E8B747" d="M632.436,184.362c3.492,8.739,8.316,16.361,14.435,22.9l18.421-22.617
		c-2.171-3.265-3.973-6.859-5.404-10.783c-0.939-2.572-1.676-5.258-2.232-8.045c-10.04,0.742-19.935,1.637-29.639,2.661
		C628.961,174.038,630.425,179.337,632.436,184.362"/>
	<path clip-path="url(#SVGID_2_)" fill="#E8B747" d="M722.892,201.013c-4.181,1.843-8.591,3.018-13.222,3.555l-2.704,26.378
		c9.994-0.332,19.256-2.248,27.776-5.782c8.364-3.47,15.733-8.136,22.119-13.981l-21.947-17.876
		C731.399,196.458,727.393,199.031,722.892,201.013"/>
	<path clip-path="url(#SVGID_2_)" fill="#E8B747" d="M684.639,201.013c-4.373-1.957-8.287-4.484-11.748-7.58l-21.949,17.866
		c6.356,5.793,13.685,10.417,21.997,13.864c8.595,3.567,17.952,5.484,28.058,5.788l-2.692-26.331
		C693.429,204.109,688.872,202.912,684.639,201.013"/>
	<path clip-path="url(#SVGID_2_)" fill="#626368" d="M658.587,249.256c4.614,0,8.767,0.661,12.458,1.983
		c3.691,1.324,6.89,3.062,9.598,5.215l-4.983,7.752c-2.154-1.784-4.66-3.276-7.521-4.476c-2.86-1.2-6.076-1.8-9.644-1.8
		c-3.691,0-6.736,0.846-9.137,2.538c-2.398,1.692-3.599,4.383-3.599,8.074c0,1.477,0.261,2.755,0.784,3.83
		c0.522,1.077,1.385,2.03,2.584,2.861c1.2,0.83,2.769,1.554,4.707,2.167c1.938,0.617,4.352,1.232,7.244,1.847
		c4.121,0.923,7.612,1.97,10.475,3.138c2.86,1.17,5.198,2.538,7.013,4.107c1.814,1.568,3.123,3.384,3.923,5.444
		c0.799,2.063,1.2,4.384,1.2,6.968c0,3.077-0.57,5.876-1.708,8.397c-1.139,2.523-2.754,4.692-4.845,6.507
		c-2.092,1.815-4.63,3.215-7.613,4.198c-2.985,0.984-6.321,1.477-10.013,1.477c-5.046,0-9.645-0.754-13.797-2.261
		c-4.153-1.507-7.83-3.646-11.028-6.414l5.261-7.844c2.399,2.399,5.383,4.307,8.951,5.722c3.567,1.416,7.198,2.122,10.89,2.122
		c4.245,0,7.721-0.937,10.429-2.814c2.706-1.876,4.061-4.66,4.061-8.352c0-1.477-0.293-2.784-0.877-3.922
		c-0.586-1.138-1.509-2.152-2.769-3.046c-1.262-0.891-2.907-1.676-4.938-2.354c-2.029-0.676-4.46-1.322-7.289-1.938
		c-4.123-0.923-7.6-1.969-10.429-3.138c-2.83-1.168-5.107-2.538-6.829-4.106c-1.723-1.569-2.954-3.369-3.691-5.399
		c-0.738-2.03-1.107-4.306-1.107-6.829c0-2.953,0.538-5.644,1.615-8.074c1.075-2.43,2.584-4.507,4.521-6.229
		c1.938-1.722,4.275-3.046,7.014-3.969C652.232,249.717,655.265,249.256,658.587,249.256"/>
	<path clip-path="url(#SVGID_2_)" fill="#626368" d="M712.758,271.036c3.444,0,6.612,0.6,9.505,1.799
		c2.892,1.2,5.398,2.877,7.521,5.03c2.122,2.154,3.783,4.706,4.983,7.659c1.199,2.953,1.8,6.184,1.8,9.69s-0.601,6.723-1.8,9.644
		c-1.2,2.923-2.861,5.445-4.983,7.567c-2.123,2.123-4.63,3.784-7.521,4.983c-2.893,1.2-6.061,1.8-9.505,1.8
		c-3.446,0-6.614-0.6-9.506-1.8c-2.893-1.199-5.398-2.86-7.521-4.983c-2.122-2.122-3.769-4.645-4.937-7.567
		c-1.17-2.921-1.754-6.137-1.754-9.644s0.584-6.737,1.754-9.69c1.168-2.953,2.814-5.505,4.937-7.659
		c2.123-2.153,4.629-3.83,7.521-5.03C706.144,271.635,709.312,271.036,712.758,271.036 M712.758,279.064
		c-2.154,0-4.123,0.401-5.906,1.2c-1.785,0.8-3.322,1.924-4.615,3.368c-1.292,1.446-2.292,3.153-3,5.122
		c-0.707,1.97-1.06,4.122-1.06,6.46c0,2.339,0.353,4.476,1.06,6.414c0.708,1.938,1.708,3.614,3,5.029
		c1.293,1.416,2.83,2.523,4.615,3.322c1.783,0.8,3.752,1.199,5.906,1.199c2.091,0,4.044-0.399,5.859-1.199
		c1.814-0.799,3.369-1.906,4.662-3.322c1.291-1.415,2.306-3.092,3.043-5.029c0.739-1.938,1.108-4.075,1.108-6.414
		c0-2.338-0.369-4.49-1.108-6.46c-0.737-1.969-1.752-3.676-3.043-5.122c-1.293-1.444-2.848-2.568-4.662-3.368
		C716.802,279.465,714.849,279.064,712.758,279.064"/>
	<rect x="746.441" y="248.149" clip-path="url(#SVGID_2_)" fill="#626368" width="9.044" height="70.137"/>
	<path clip-path="url(#SVGID_2_)" fill="#626368" d="M786.861,271.036c3.691,0,6.751,0.646,9.183,1.938
		c2.43,1.292,4.321,2.831,5.676,4.614l0.369-5.629h8.213v46.327h-8.213l-0.369-5.63c-1.354,1.785-3.246,3.322-5.676,4.614
		c-2.432,1.293-5.491,1.938-9.183,1.938c-3.199,0-6.106-0.6-8.721-1.8c-2.616-1.199-4.861-2.875-6.737-5.029
		c-1.877-2.153-3.338-4.69-4.383-7.613c-1.047-2.922-1.569-6.138-1.569-9.645s0.522-6.721,1.569-9.644
		c1.045-2.921,2.506-5.459,4.383-7.613c1.876-2.153,4.121-3.83,6.737-5.03C780.755,271.635,783.662,271.036,786.861,271.036
		 M788.522,279.064c-2.03,0-3.892,0.386-5.583,1.154c-1.693,0.77-3.17,1.861-4.43,3.275c-1.262,1.416-2.23,3.107-2.907,5.076
		c-0.678,1.97-1.015,4.152-1.015,6.552s0.337,4.584,1.015,6.553c0.677,1.97,1.646,3.66,2.907,5.075
		c1.26,1.416,2.736,2.508,4.43,3.276c1.691,0.771,3.553,1.153,5.583,1.153c3.138,0,5.69-0.738,7.66-2.215
		c1.968-1.477,3.659-3.353,5.075-5.63v-16.426c-1.416-2.275-3.107-4.153-5.075-5.63C794.213,279.802,791.66,279.064,788.522,279.064
		"/>
	<path clip-path="url(#SVGID_2_)" fill="#626368" d="M846.938,280.08h-0.83c-2.893,0-5.307,0.724-7.245,2.169
		c-1.938,1.446-3.707,3.308-5.306,5.583v30.454h-9.044v-46.327h8.213l0.462,6.275c1.168-1.846,2.891-3.508,5.168-4.983
		c2.275-1.477,5.136-2.215,8.582-2.215V280.08z"/>
	<path clip-path="url(#SVGID_2_)" fill="#626368" d="M901.109,250.456c3.322,0,6.428,0.462,9.32,1.385
		c2.892,0.923,5.398,2.292,7.521,4.106c2.122,1.815,3.783,4.061,4.983,6.737c1.2,2.676,1.8,5.768,1.8,9.274
		c0,3.446-0.6,6.491-1.8,9.136c-1.2,2.646-2.861,4.877-4.983,6.691c-2.123,1.815-4.614,3.199-7.476,4.152
		c-2.86,0.955-5.983,1.431-9.366,1.431h-14.12v24.917h-9.413v-67.83H901.109z M886.989,258.761v26.302h13.289
		c4.553,0,8.167-1.107,10.844-3.322c2.676-2.215,4.015-5.476,4.015-9.782c0-4.306-1.354-7.582-4.061-9.828
		c-2.708-2.245-6.308-3.369-10.798-3.369H886.989z"/>
	<path clip-path="url(#SVGID_2_)" fill="#626368" d="M952.42,271.036c3.444,0,6.612,0.6,9.505,1.799
		c2.892,1.2,5.398,2.877,7.521,5.03c2.122,2.154,3.783,4.706,4.983,7.659c1.199,2.953,1.8,6.184,1.8,9.69s-0.601,6.723-1.8,9.644
		c-1.2,2.923-2.861,5.445-4.983,7.567c-2.123,2.123-4.63,3.784-7.521,4.983c-2.893,1.2-6.061,1.8-9.505,1.8
		c-3.446,0-6.614-0.6-9.506-1.8c-2.893-1.199-5.398-2.86-7.521-4.983c-2.122-2.122-3.769-4.645-4.937-7.567
		c-1.17-2.921-1.754-6.137-1.754-9.644s0.584-6.737,1.754-9.69c1.168-2.953,2.814-5.505,4.937-7.659
		c2.123-2.153,4.629-3.83,7.521-5.03C945.806,271.635,948.974,271.036,952.42,271.036 M952.42,279.064
		c-2.154,0-4.123,0.401-5.906,1.2c-1.785,0.8-3.322,1.924-4.615,3.368c-1.292,1.446-2.292,3.153-3,5.122
		c-0.707,1.97-1.06,4.122-1.06,6.46c0,2.339,0.353,4.476,1.06,6.414c0.708,1.938,1.708,3.614,3,5.029
		c1.293,1.416,2.83,2.523,4.615,3.322c1.783,0.8,3.752,1.199,5.906,1.199c2.091,0,4.044-0.399,5.859-1.199
		c1.814-0.799,3.369-1.906,4.662-3.322c1.291-1.415,2.306-3.092,3.043-5.029c0.739-1.938,1.108-4.075,1.108-6.414
		c0-2.338-0.369-4.49-1.108-6.46c-0.737-1.969-1.752-3.676-3.043-5.122c-1.293-1.444-2.848-2.568-4.662-3.368
		C956.464,279.465,954.511,279.064,952.42,279.064"/>
	<polygon clip-path="url(#SVGID_2_)" fill="#626368" points="1025.972,319.208 1025.603,319.208 1012.313,291.708 998.933,319.208 
		998.563,319.208 977.983,271.958 988.135,271.958 999.394,298.813 1012.129,271.958 1012.498,271.958 1025.233,298.813 
		1036.492,271.958 1046.552,271.958 	"/>
	<path clip-path="url(#SVGID_2_)" fill="#626368" d="M1070.545,271.036c3.445,0,6.475,0.632,9.09,1.892
		c2.614,1.262,4.799,2.969,6.553,5.122c1.754,2.154,3.075,4.66,3.968,7.521c0.892,2.86,1.339,5.922,1.339,9.182v3.6h-33.961
		c0.122,4.245,1.384,7.491,3.783,9.736c2.399,2.246,5.814,3.368,10.244,3.368c3.075,0,5.644-0.584,7.705-1.754
		c2.061-1.168,3.676-2.552,4.846-4.152l6.275,5.26c-2.215,2.769-4.846,4.861-7.891,6.275c-3.046,1.415-6.69,2.123-10.936,2.123
		c-3.569,0-6.783-0.6-9.645-1.8c-2.86-1.199-5.292-2.86-7.29-4.983c-2-2.122-3.539-4.645-4.614-7.567
		c-1.077-2.921-1.615-6.137-1.615-9.644s0.538-6.737,1.615-9.69c1.075-2.953,2.598-5.505,4.568-7.659
		c1.968-2.153,4.306-3.83,7.014-5.029C1064.3,271.635,1067.283,271.036,1070.545,271.036 M1070.545,278.788
		c-3.753,0-6.799,1.107-9.136,3.322c-2.339,2.215-3.632,5.168-3.876,8.859h25.009c-0.124-3.691-1.216-6.645-3.276-8.859
		C1077.204,279.895,1074.297,278.788,1070.545,278.788"/>
	<path clip-path="url(#SVGID_2_)" fill="#626368" d="M1124.07,280.08h-0.83c-2.893,0-5.307,0.724-7.245,2.169
		c-1.938,1.446-3.707,3.308-5.306,5.583v30.454h-9.044v-46.327h8.213l0.462,6.275c1.168-1.846,2.891-3.508,5.168-4.983
		c2.275-1.477,5.136-2.215,8.582-2.215V280.08z"/>
	<path clip-path="url(#SVGID_2_)" fill="#626369" d="M1165.063,47.406c0,10.88-7.814,18.755-18.274,18.755
		c-10.581,0-18.214-7.875-18.214-18.755c0-10.701,7.633-18.815,18.214-18.815C1157.248,28.59,1165.063,36.705,1165.063,47.406
		 M1161.035,47.406c0-8.536-6.011-15.088-14.247-15.088c-8.296,0-14.246,6.552-14.246,15.088c0,8.656,5.95,15.089,14.246,15.089
		C1155.024,62.495,1161.035,56.062,1161.035,47.406 M1150.635,49.629l4.749,7.815h-4.567l-4.33-7.093h-2.944v7.093h-3.967V37.066
		h7.513c3.969,0,7.334,2.344,7.334,6.553C1154.422,46.504,1152.859,48.608,1150.635,49.629 M1146.729,46.745
		c2.283,0,3.727-0.962,3.727-3.065c0-2.045-1.443-3.007-3.727-3.007h-3.187v6.072H1146.729z"/>
</g>
</svg>
